<?xml version="1.0" standalone="no"?>
<!DOCTYPE svg PUBLIC "-//W3C//DTD SVG 20010904//EN"
 "http://www.w3.org/TR/2001/REC-SVG-20010904/DTD/svg10.dtd">
<svg version="1.0" xmlns="http://www.w3.org/2000/svg"
 width="1024.000000pt" height="1024.000000pt" viewBox="0 0 1024.000000 1024.000000"
 preserveAspectRatio="xMidYMid meet">

<g transform="translate(0.000000,1024.000000) scale(0.100000,-0.100000)"
fill="#000000" stroke="none">
<path d="M6440 10230 c-58 -5 -1387 -103 -2955 -219 -1567 -116 -2886 -215
-2930 -221 -279 -39 -464 -201 -532 -465 -17 -67 -18 -232 -18 -3335 l0 -3265
28 -100 c35 -130 125 -310 229 -461 140 -203 1439 -1883 1510 -1953 149 -148
325 -211 586 -211 78 0 763 40 2327 135 777 47 1359 82 1655 100 140 8 363 22
495 30 132 8 690 42 1240 75 550 33 1043 65 1095 71 276 32 469 144 553 321
19 40 43 105 53 143 18 67 19 225 21 3700 3 3277 2 3634 -13 3683 -20 70 -49
115 -115 178 -89 84 -85 81 -1064 770 -187 132 -527 372 -757 534 -229 161
-458 317 -508 346 -103 59 -220 104 -331 129 -89 19 -412 28 -569 15z m449
-586 c155 -28 292 -89 442 -197 503 -362 1000 -725 1022 -746 16 -14 36 -39
44 -55 32 -61 246 -44 -2874 -232 -1572 -95 -2953 -178 -3069 -185 -316 -18
-440 3 -601 99 -73 44 -927 718 -955 755 -10 12 -18 38 -18 59 0 46 39 82 113
103 33 9 383 38 957 80 498 36 995 72 1105 80 110 8 385 29 610 45 226 17 502
37 615 45 113 9 421 31 685 50 264 19 539 39 610 45 300 23 965 70 1025 72 99
4 197 -2 289 -18z m2050 -1750 c67 -20 121 -73 152 -150 l24 -59 0 -3130 0
-3130 -23 -58 c-36 -88 -79 -137 -152 -175 -36 -18 -90 -37 -120 -42 -62 -11
-6230 -370 -6356 -370 -217 0 -346 69 -405 216 l-24 59 -3 3080 c-2 2272 0
3096 9 3140 28 149 104 222 256 246 37 5 451 32 918 59 1282 74 2782 162 4245
249 723 43 1340 79 1371 80 30 0 79 -6 108 -15z"/>
<path d="M7375 6770 c-672 -40 -705 -44 -785 -95 -54 -34 -116 -110 -134 -162
-9 -26 -16 -76 -16 -113 l0 -66 258 -30 257 -29 3 -1370 c2 -1172 0 -1367 -12
-1355 -8 8 -463 704 -1012 1545 -548 842 -999 1532 -1000 1534 -5 5 -1389 -87
-1485 -99 -41 -5 -96 -18 -122 -29 -64 -28 -138 -99 -170 -165 -34 -69 -54
-181 -41 -227 l10 -34 244 -20 245 -20 3 -1961 2 -1961 -177 -48 c-98 -27
-195 -57 -215 -67 -71 -35 -118 -125 -118 -230 0 -45 4 -60 16 -65 10 -3 112
-1 228 6 278 16 822 48 1066 62 281 17 372 44 468 139 48 49 92 134 95 187 l2
38 -307 70 -308 69 0 1481 c1 1327 2 1478 16 1460 8 -11 445 -697 971 -1525
526 -828 985 -1541 1020 -1585 113 -141 211 -233 288 -271 87 -42 148 -54 287
-54 176 0 334 41 568 148 l125 57 5 2195 5 2194 183 37 c209 43 238 57 278
143 19 41 24 67 24 138 0 47 -3 93 -6 102 -8 21 10 21 -759 -24z"/>
</g>
</svg>
