<svg version="1.1" id="Layer_1" xmlns="http://www.w3.org/2000/svg" xmlns:xlink="http://www.w3.org/1999/xlink" x="0px" y="0px"
	 width="100%" viewBox="0 0 2500 2500" enable-background="new 0 0 2500 2500" xml:space="preserve">
<path fill="#1F1F1F" opacity="1.000000" stroke="none" 
	d="
M2.000000,848.000000 
	C2.000000,565.333313 2.000000,283.666656 2.000000,2.000000 
	C835.333313,2.000000 1668.666626,2.000000 2502.000000,2.000000 
	C2502.000000,835.333313 2502.000000,1668.666626 2502.000000,2502.000000 
	C1668.666626,2502.000000 835.333313,2502.000000 2.000000,2502.000000 
	C2.000000,1951.000000 2.000000,1400.000000 2.000000,848.000000 
M784.718384,75.680054 
	C768.873352,77.008438 753.036682,78.447632 737.181458,79.640724 
	C709.414917,81.730125 681.635010,83.642189 653.864380,85.677643 
	C627.089050,87.640160 600.319580,89.682610 573.545105,91.657066 
	C546.107483,93.680412 518.668762,95.690292 491.226990,97.656364 
	C469.729645,99.196556 448.225708,100.644569 426.726807,102.163101 
	C400.605591,104.008095 374.488159,105.907257 348.365906,107.737106 
	C335.128632,108.664360 321.873749,109.355911 308.645264,110.390083 
	C278.591339,112.739647 248.578003,115.728462 218.492020,117.507538 
	C196.432434,118.811981 174.999496,122.553055 154.307358,130.097549 
	C132.075745,138.203354 112.767494,150.865524 97.290070,168.969925 
	C71.438583,199.209183 60.624916,235.367599 60.595207,274.013947 
	C60.205719,780.673035 60.328907,1287.332642 60.391338,1793.992065 
	C60.392521,1803.599365 60.988583,1813.223877 61.700161,1822.811035 
	C64.351555,1858.533813 76.149727,1891.492676 92.517929,1923.000366 
	C110.537552,1957.687134 133.775482,1988.841553 157.617432,2019.647949 
	C207.042648,2083.510986 256.066589,2147.684814 305.322998,2211.678711 
	C344.446960,2262.508301 383.543304,2313.360596 422.904633,2364.006104 
	C442.677368,2389.447754 462.522949,2414.861816 483.208832,2439.557129 
	C513.926514,2476.228516 554.558167,2494.067627 601.522400,2497.490479 
	C641.065735,2500.372070 680.658142,2497.836670 720.179443,2495.583252 
	C745.321960,2494.149658 770.424133,2492.021240 795.554565,2490.356934 
	C810.455750,2489.370117 825.377991,2488.703613 840.288330,2487.851074 
	C860.483521,2486.696533 880.674194,2485.462158 900.870911,2484.336426 
	C918.107483,2483.375488 935.360474,2482.684814 952.587280,2481.579346 
	C977.720703,2479.967285 1002.831665,2478.008057 1027.962769,2476.358643 
	C1042.534424,2475.401855 1057.131714,2474.841309 1071.708862,2473.961914 
	C1090.569946,2472.823975 1109.415649,2471.425537 1128.280518,2470.360596 
	C1146.845459,2469.312500 1165.438599,2468.745850 1183.996582,2467.598633 
	C1209.465454,2466.024414 1234.905396,2463.986084 1260.371338,2462.359863 
	C1285.863403,2460.731689 1311.372070,2459.364258 1336.873657,2457.885742 
	C1357.402344,2456.695557 1377.929321,2455.478027 1398.460449,2454.332520 
	C1415.364746,2453.389648 1432.284180,2452.695801 1449.178345,2451.603027 
	C1474.311035,2449.977783 1499.421631,2448.011230 1524.552856,2446.361084 
	C1539.122437,2445.404053 1553.716797,2444.833252 1568.294800,2443.996094 
	C1588.822021,2442.817383 1609.341309,2441.500977 1629.869507,2440.340332 
	C1647.105469,2439.365723 1664.359741,2438.697510 1681.586670,2437.591797 
	C1706.720093,2435.978516 1731.826294,2433.940186 1756.962524,2432.378662 
	C1775.519897,2431.225586 1794.119263,2430.749268 1812.677124,2429.601807 
	C1838.146118,2428.027344 1863.589233,2426.038086 1889.051514,2424.347656 
	C1910.560303,2422.919922 1932.079468,2421.648926 1953.595825,2420.336426 
	C1975.776489,2418.983154 1997.959473,2417.670898 2020.140625,2416.327393 
	C2041.989624,2415.003906 2063.836670,2413.647949 2085.686279,2412.334961 
	C2108.200195,2410.982422 2130.717285,2409.678955 2153.231201,2408.326660 
	C2175.080811,2407.014160 2196.929199,2405.677979 2218.776611,2404.332520 
	C2240.292480,2403.007812 2261.836426,2402.017578 2283.313721,2400.228271 
	C2309.866211,2398.016113 2335.802734,2392.835693 2360.610840,2382.609375 
	C2393.510742,2369.047119 2417.878418,2346.685303 2431.780762,2313.735352 
	C2441.706543,2290.210205 2446.228760,2265.331543 2446.234619,2239.922363 
	C2446.362793,1665.597168 2446.333740,1091.272095 2446.331055,516.946960 
	C2446.330811,492.110535 2438.118652,470.266754 2419.738525,453.593719 
	C2403.777344,439.115143 2386.846924,425.537476 2369.339355,412.961670 
	C2314.780762,373.771790 2259.800293,335.167267 2204.877441,296.486481 
	C2154.850098,261.253448 2104.650879,226.264557 2054.590576,191.078491 
	C2019.219238,166.216797 1984.040283,141.080505 1948.612305,116.300255 
	C1920.002563,96.289001 1891.500732,76.089256 1862.300293,56.966850 
	C1835.493774,39.412109 1806.771606,25.304873 1775.143433,18.728569 
	C1741.928711,11.822362 1708.385132,9.867499 1674.303101,11.252963 
	C1638.461548,12.709949 1602.796753,15.902107 1567.054810,18.325953 
	C1540.929443,20.097645 1514.819214,22.091335 1488.697266,23.916460 
	C1475.791748,24.818167 1462.864868,25.428310 1449.965820,26.408131 
	C1428.167603,28.063931 1406.390869,30.002771 1384.591431,31.640860 
	C1370.032104,32.734898 1355.439087,33.379742 1340.879028,34.465569 
	C1319.078857,36.091347 1297.301636,38.024078 1275.500854,39.641178 
	C1260.940308,40.721226 1246.344849,41.329655 1231.785034,42.417377 
	C1209.984985,44.045986 1188.209595,46.002033 1166.410278,47.642193 
	C1151.851074,48.737621 1137.256714,49.372223 1122.699341,50.488892 
	C1101.896851,52.084606 1081.123535,54.062382 1060.319092,55.629131 
	C1045.428955,56.750481 1030.492432,57.258785 1015.604614,58.405430 
	C985.879089,60.694866 956.181274,63.342308 926.456055,65.635544 
	C904.965759,67.293472 883.445862,68.564835 861.946167,70.105965 
	C836.825500,71.906654 811.712341,73.813164 784.718384,75.680054 
z"/>
<path fill="#FFFFFF" opacity="1.000000" stroke="none" 
	d="
M785.657166,75.676910 
	C811.712341,73.813164 836.825500,71.906654 861.946167,70.105965 
	C883.445862,68.564835 904.965759,67.293472 926.456055,65.635544 
	C956.181274,63.342308 985.879089,60.694866 1015.604614,58.405430 
	C1030.492432,57.258785 1045.428955,56.750481 1060.319092,55.629131 
	C1081.123535,54.062382 1101.896851,52.084606 1122.699341,50.488892 
	C1137.256714,49.372223 1151.851074,48.737621 1166.410278,47.642193 
	C1188.209595,46.002033 1209.984985,44.045986 1231.785034,42.417377 
	C1246.344849,41.329655 1260.940308,40.721226 1275.500854,39.641178 
	C1297.301636,38.024078 1319.078857,36.091347 1340.879028,34.465569 
	C1355.439087,33.379742 1370.032104,32.734898 1384.591431,31.640860 
	C1406.390869,30.002771 1428.167603,28.063931 1449.965820,26.408131 
	C1462.864868,25.428310 1475.791748,24.818167 1488.697266,23.916460 
	C1514.819214,22.091335 1540.929443,20.097645 1567.054810,18.325953 
	C1602.796753,15.902107 1638.461548,12.709949 1674.303101,11.252963 
	C1708.385132,9.867499 1741.928711,11.822362 1775.143433,18.728569 
	C1806.771606,25.304873 1835.493774,39.412109 1862.300293,56.966850 
	C1891.500732,76.089256 1920.002563,96.289001 1948.612305,116.300255 
	C1984.040283,141.080505 2019.219238,166.216797 2054.590576,191.078491 
	C2104.650879,226.264557 2154.850098,261.253448 2204.877441,296.486481 
	C2259.800293,335.167267 2314.780762,373.771790 2369.339355,412.961670 
	C2386.846924,425.537476 2403.777344,439.115143 2419.738525,453.593719 
	C2438.118652,470.266754 2446.330811,492.110535 2446.331055,516.946960 
	C2446.333740,1091.272095 2446.362793,1665.597168 2446.234619,2239.922363 
	C2446.228760,2265.331543 2441.706543,2290.210205 2431.780762,2313.735352 
	C2417.878418,2346.685303 2393.510742,2369.047119 2360.610840,2382.609375 
	C2335.802734,2392.835693 2309.866211,2398.016113 2283.313721,2400.228271 
	C2261.836426,2402.017578 2240.292480,2403.007812 2218.776611,2404.332520 
	C2196.929199,2405.677979 2175.080811,2407.014160 2153.231201,2408.326660 
	C2130.717285,2409.678955 2108.200195,2410.982422 2085.686279,2412.334961 
	C2063.836670,2413.647949 2041.989624,2415.003906 2020.140625,2416.327393 
	C1997.959473,2417.670898 1975.776489,2418.983154 1953.595825,2420.336426 
	C1932.079468,2421.648926 1910.560303,2422.919922 1889.051514,2424.347656 
	C1863.589233,2426.038086 1838.146118,2428.027344 1812.677124,2429.601807 
	C1794.119263,2430.749268 1775.519897,2431.225586 1756.962524,2432.378662 
	C1731.826294,2433.940186 1706.720093,2435.978516 1681.586670,2437.591797 
	C1664.359741,2438.697510 1647.105469,2439.365723 1629.869507,2440.340332 
	C1609.341309,2441.500977 1588.822021,2442.817383 1568.294800,2443.996094 
	C1553.716797,2444.833252 1539.122437,2445.404053 1524.552856,2446.361084 
	C1499.421631,2448.011230 1474.311035,2449.977783 1449.178345,2451.603027 
	C1432.284180,2452.695801 1415.364746,2453.389648 1398.460449,2454.332520 
	C1377.929321,2455.478027 1357.402344,2456.695557 1336.873657,2457.885742 
	C1311.372070,2459.364258 1285.863403,2460.731689 1260.371338,2462.359863 
	C1234.905396,2463.986084 1209.465454,2466.024414 1183.996582,2467.598633 
	C1165.438599,2468.745850 1146.845459,2469.312500 1128.280518,2470.360596 
	C1109.415649,2471.425537 1090.569946,2472.823975 1071.708862,2473.961914 
	C1057.131714,2474.841309 1042.534424,2475.401855 1027.962769,2476.358643 
	C1002.831665,2478.008057 977.720703,2479.967285 952.587280,2481.579346 
	C935.360474,2482.684814 918.107483,2483.375488 900.870911,2484.336426 
	C880.674194,2485.462158 860.483521,2486.696533 840.288330,2487.851074 
	C825.377991,2488.703613 810.455750,2489.370117 795.554565,2490.356934 
	C770.424133,2492.021240 745.321960,2494.149658 720.179443,2495.583252 
	C680.658142,2497.836670 641.065735,2500.372070 601.522400,2497.490479 
	C554.558167,2494.067627 513.926514,2476.228516 483.208832,2439.557129 
	C462.522949,2414.861816 442.677368,2389.447754 422.904633,2364.006104 
	C383.543304,2313.360596 344.446960,2262.508301 305.322998,2211.678711 
	C256.066589,2147.684814 207.042648,2083.510986 157.617432,2019.647949 
	C133.775482,1988.841553 110.537552,1957.687134 92.517929,1923.000366 
	C76.149727,1891.492676 64.351555,1858.533813 61.700161,1822.811035 
	C60.988583,1813.223877 60.392521,1803.599365 60.391338,1793.992065 
	C60.328907,1287.332642 60.205719,780.673035 60.595207,274.013947 
	C60.624916,235.367599 71.438583,199.209183 97.290070,168.969925 
	C112.767494,150.865524 132.075745,138.203354 154.307358,130.097549 
	C174.999496,122.553055 196.432434,118.811981 218.492020,117.507538 
	C248.578003,115.728462 278.591339,112.739647 308.645264,110.390083 
	C321.873749,109.355911 335.128632,108.664360 348.365906,107.737106 
	C374.488159,105.907257 400.605591,104.008095 426.726807,102.163101 
	C448.225708,100.644569 469.729645,99.196556 491.226990,97.656364 
	C518.668762,95.690292 546.107483,93.680412 573.545105,91.657066 
	C600.319580,89.682610 627.089050,87.640160 653.864380,85.677643 
	C681.635010,83.642189 709.414917,81.730125 737.181458,79.640724 
	C753.036682,78.447632 768.873352,77.008438 785.657166,75.676910 
M554.334595,1954.999878 
	C554.334595,2039.654419 554.243347,2124.309082 554.425537,2208.963135 
	C554.455505,2222.883789 555.979919,2236.770752 559.986755,2250.223633 
	C567.888367,2276.753418 584.859009,2294.298584 611.504272,2302.439697 
	C637.045715,2310.243896 663.112671,2309.815186 689.332092,2308.102783 
	C710.841553,2306.697998 732.366638,2305.525146 753.890259,2304.349609 
	C771.792542,2303.371094 789.713501,2302.712646 807.606750,2301.598877 
	C833.406433,2299.993408 859.182312,2298.005127 884.980530,2296.372803 
	C900.550354,2295.387939 916.148743,2294.864990 931.724304,2293.961182 
	C950.919739,2292.846680 970.101440,2291.498047 989.295227,2290.353027 
	C1004.532837,2289.443848 1019.780396,2288.701660 1035.022339,2287.863525 
	C1056.218994,2286.697754 1077.412354,2285.471680 1098.611084,2284.344727 
	C1116.514648,2283.393066 1134.433838,2282.711182 1152.328003,2281.614014 
	C1178.793335,2279.991455 1205.238037,2278.034912 1231.700684,2276.363770 
	C1246.604248,2275.422607 1261.527344,2274.794189 1276.439209,2273.979736 
	C1298.299072,2272.785400 1320.155151,2271.524170 1342.015625,2270.341064 
	C1359.253296,2269.408203 1376.503662,2268.689941 1393.733154,2267.627197 
	C1420.530029,2265.974609 1447.309326,2264.035889 1474.105225,2262.364014 
	C1489.343628,2261.413086 1504.605225,2260.838623 1519.847168,2259.937500 
	C1538.709839,2258.822021 1557.558105,2257.465088 1576.421387,2256.360107 
	C1592.327026,2255.428223 1608.247070,2254.746338 1624.157104,2253.884033 
	C1645.351807,2252.735840 1666.541016,2251.486572 1687.735962,2250.343262 
	C1705.306519,2249.395508 1722.891113,2248.688721 1740.452881,2247.604980 
	C1766.917603,2245.972168 1793.362549,2244.019287 1819.826172,2242.367432 
	C1835.065430,2241.416260 1850.327759,2240.841553 1865.574707,2240.005615 
	C1887.098877,2238.825684 1908.615845,2237.513916 1930.140625,2236.347168 
	C1948.043335,2235.376465 1965.962769,2234.693848 1983.857178,2233.597412 
	C2010.322266,2231.976318 2036.767700,2230.036377 2063.229736,2228.361572 
	C2078.134766,2227.417969 2093.057617,2226.757324 2107.970215,2225.928223 
	C2129.162598,2224.749756 2150.371338,2223.787598 2171.537354,2222.242432 
	C2185.066650,2221.254639 2198.754395,2220.450684 2211.981445,2217.694824 
	C2246.330322,2210.538574 2268.593262,2190.367920 2276.488037,2155.260498 
	C2280.083008,2139.273682 2281.521729,2123.091797 2281.527588,2106.909668 
	C2281.697510,1628.257446 2281.698486,1149.605225 2281.493652,670.953125 
	C2281.488037,657.781311 2280.213379,644.318848 2277.305420,631.496582 
	C2269.935547,598.999756 2250.967529,578.577515 2215.089355,578.204041 
	C2206.517090,578.114868 2197.934814,579.177124 2189.354248,579.657471 
	C2174.111084,580.510681 2158.865723,581.317322 2143.621582,582.155212 
	C2122.427002,583.320190 2101.234375,584.521301 2080.038086,585.659180 
	C2062.467529,586.602478 2044.883545,587.325745 2027.322388,588.417053 
	C2001.190430,590.040955 1975.078247,591.978699 1948.948242,593.635315 
	C1933.714355,594.601196 1918.457886,595.205933 1903.219482,596.105835 
	C1884.353516,597.220032 1865.499023,598.524292 1846.633545,599.647400 
	C1831.395752,600.554565 1816.148682,601.304565 1800.906738,602.142761 
	C1779.710083,603.308350 1758.515991,604.520935 1737.317749,605.657043 
	C1719.746826,606.598755 1702.161621,607.299927 1684.600464,608.392395 
	C1658.468750,610.018005 1632.357300,611.969971 1606.227905,613.635193 
	C1591.325195,614.584961 1576.402222,615.213867 1561.491089,616.036011 
	C1539.963867,617.223022 1518.441162,618.489197 1496.912964,619.656067 
	C1479.342529,620.608459 1461.757690,621.315308 1444.195801,622.398804 
	C1417.731323,624.031555 1391.285522,625.965454 1364.823364,627.637390 
	C1350.582275,628.537170 1336.317871,629.065491 1322.074097,629.927612 
	C1302.880615,631.089294 1283.701172,632.486816 1264.507202,633.640564 
	C1248.935425,634.576477 1233.349243,635.270447 1217.772583,636.129211 
	C1196.910889,637.279297 1176.054688,638.528992 1155.191772,639.653259 
	C1137.289062,640.618103 1119.369263,641.294373 1101.476318,642.407776 
	C1075.676392,644.013184 1049.899780,645.990540 1024.101807,647.629517 
	C1008.864014,648.597595 993.601318,649.166199 978.355103,650.009705 
	C957.163391,651.182190 935.979309,652.491089 914.787109,653.652771 
	C897.217712,654.615906 879.630737,655.280823 862.070557,656.382324 
	C836.271240,658.000549 810.494934,659.982544 784.697266,661.629333 
	C769.128967,662.623108 753.536621,663.232117 737.959351,664.092224 
	C717.098511,665.243896 696.233398,666.343628 675.385742,667.703979 
	C656.203491,668.955505 636.907593,669.555298 617.904724,672.192871 
	C593.648804,675.559509 573.817017,686.480408 563.557251,710.482849 
	C556.638794,726.668335 554.439453,743.767273 554.433838,761.035889 
	C554.305237,1158.357178 554.334595,1555.678467 554.334595,1954.999878 
M1500.685547,163.672272 
	C1482.508545,165.006805 1464.334839,166.389038 1446.153442,167.660385 
	C1432.252319,168.632446 1418.330200,169.318954 1404.437134,170.388153 
	C1374.050293,172.726685 1343.683472,175.323822 1313.294312,177.629684 
	C1292.135254,179.235184 1270.949341,180.482895 1249.781616,181.979233 
	C1223.331421,183.849014 1196.890137,185.842667 1170.440308,187.717880 
	C1156.872437,188.679840 1143.285522,189.380814 1129.723389,190.412491 
	C1107.926025,192.070633 1086.149658,194.010788 1064.349487,195.628479 
	C1049.458496,196.733459 1034.530762,197.340286 1019.639526,198.442123 
	C997.838867,200.055206 976.063843,202.013596 954.263428,203.630051 
	C939.372803,204.734161 924.444519,205.335480 909.556396,206.467896 
	C888.752747,208.050232 867.982178,210.071228 847.175842,211.613632 
	C831.621460,212.766678 816.015015,213.225006 800.463440,214.408218 
	C770.737122,216.669891 741.043152,219.356583 711.316895,221.619308 
	C689.823792,223.255325 668.294983,224.415497 646.791687,225.925354 
	C620.343567,227.782425 593.907471,229.811249 567.462097,231.708755 
	C553.894531,232.682251 540.310303,233.429611 526.747375,234.460083 
	C504.950439,236.116119 483.172028,238.018661 461.372070,239.631378 
	C446.480194,240.733047 431.554626,241.378525 416.662628,242.478851 
	C394.862549,244.089615 373.070526,245.825348 351.291565,247.699921 
	C336.778229,248.949097 322.139008,249.685349 307.855743,252.292648 
	C299.617798,253.796432 291.329803,257.552307 284.212097,262.093506 
	C272.585754,269.511353 271.118256,281.078430 279.426208,292.164429 
	C282.167511,295.822418 285.863373,298.870941 289.477997,301.752533 
	C334.682007,337.789490 379.898987,373.810638 425.225250,409.693634 
	C449.448334,428.870056 473.716827,447.997131 498.272827,466.743042 
	C532.479187,492.856018 572.046631,502.092590 614.217102,501.525696 
	C636.424927,501.227173 658.615601,499.485870 680.808228,498.289093 
	C695.386902,497.502930 709.960022,496.596741 724.527161,495.618500 
	C749.986755,493.908722 775.434998,492.029236 800.897400,490.364227 
	C815.465759,489.411591 830.056396,488.806610 844.630005,487.928467 
	C863.493530,486.791779 882.343689,485.425476 901.211365,484.367828 
	C919.776001,483.327209 938.367920,482.753113 956.925110,481.605804 
	C982.393005,480.031219 1007.834167,478.029236 1033.296997,476.366882 
	C1048.199341,475.393982 1063.123291,474.757874 1078.034180,473.912292 
	C1098.560669,472.748291 1119.081665,471.487915 1139.609375,470.346924 
	C1156.845337,469.388885 1174.098145,468.705444 1191.324829,467.608398 
	C1216.789795,465.986633 1242.232788,464.020813 1267.696045,462.368805 
	C1282.268555,461.423340 1296.865967,460.869629 1311.446045,460.031311 
	C1331.969482,458.851257 1352.484375,457.519684 1373.008301,456.349030 
	C1390.243042,455.366028 1407.495850,454.680847 1424.722168,453.576233 
	C1449.854614,451.964600 1474.965210,450.016632 1500.095215,448.365906 
	C1514.666016,447.408813 1529.260254,446.816040 1543.837158,445.946198 
	C1563.030640,444.800812 1582.211548,443.437317 1601.408936,442.366058 
	C1619.973633,441.330170 1638.565552,440.755676 1657.121948,439.599884 
	C1682.257080,438.034393 1707.364502,436.031311 1732.493896,434.365326 
	C1747.392212,433.377594 1762.310059,432.688446 1777.218140,431.845367 
	C1797.747925,430.684448 1818.274780,429.472626 1838.806274,428.343201 
	C1856.042969,427.395050 1873.295044,426.699890 1890.521118,425.594482 
	C1915.653564,423.981781 1940.763306,422.016968 1965.893555,420.368256 
	C1980.464844,419.412262 1995.059937,418.822723 2009.640015,417.994232 
	C2030.497070,416.809052 2051.353027,415.599762 2072.203857,414.311157 
	C2080.791504,413.780426 2089.472656,413.643127 2097.915039,412.187866 
	C2106.822754,410.652313 2108.813232,406.703735 2104.299072,398.841309 
	C2100.748291,392.657288 2096.093750,386.565796 2090.549805,382.175873 
	C2077.530762,371.866943 2063.651611,362.647888 2050.178955,352.906982 
	C1989.016602,308.685181 1927.867798,264.444611 1866.728638,220.190887 
	C1843.581543,203.436584 1820.864990,186.068298 1794.488647,174.339539 
	C1765.671143,161.525360 1735.609619,154.085312 1704.148193,152.350006 
	C1683.548950,151.213806 1663.005615,151.428528 1642.409912,153.509186 
	C1620.976074,155.674500 1599.414917,156.562958 1577.916138,158.103943 
	C1552.796265,159.904480 1527.683838,161.806946 1500.685547,163.672272 
z"/>
<path fill="#1F1F1F" opacity="1.000000" stroke="none" 
	d="
M554.334595,1953.999756 
	C554.334595,1555.678467 554.305237,1158.357178 554.433838,761.035889 
	C554.439453,743.767273 556.638794,726.668335 563.557251,710.482849 
	C573.817017,686.480408 593.648804,675.559509 617.904724,672.192871 
	C636.907593,669.555298 656.203491,668.955505 675.385742,667.703979 
	C696.233398,666.343628 717.098511,665.243896 737.959351,664.092224 
	C753.536621,663.232117 769.128967,662.623108 784.697266,661.629333 
	C810.494934,659.982544 836.271240,658.000549 862.070557,656.382324 
	C879.630737,655.280823 897.217712,654.615906 914.787109,653.652771 
	C935.979309,652.491089 957.163391,651.182190 978.355103,650.009705 
	C993.601318,649.166199 1008.864014,648.597595 1024.101807,647.629517 
	C1049.899780,645.990540 1075.676392,644.013184 1101.476318,642.407776 
	C1119.369263,641.294373 1137.289062,640.618103 1155.191772,639.653259 
	C1176.054688,638.528992 1196.910889,637.279297 1217.772583,636.129211 
	C1233.349243,635.270447 1248.935425,634.576477 1264.507202,633.640564 
	C1283.701172,632.486816 1302.880615,631.089294 1322.074097,629.927612 
	C1336.317871,629.065491 1350.582275,628.537170 1364.823364,627.637390 
	C1391.285522,625.965454 1417.731323,624.031555 1444.195801,622.398804 
	C1461.757690,621.315308 1479.342529,620.608459 1496.912964,619.656067 
	C1518.441162,618.489197 1539.963867,617.223022 1561.491089,616.036011 
	C1576.402222,615.213867 1591.325195,614.584961 1606.227905,613.635193 
	C1632.357300,611.969971 1658.468750,610.018005 1684.600464,608.392395 
	C1702.161621,607.299927 1719.746826,606.598755 1737.317749,605.657043 
	C1758.515991,604.520935 1779.710083,603.308350 1800.906738,602.142761 
	C1816.148682,601.304565 1831.395752,600.554565 1846.633545,599.647400 
	C1865.499023,598.524292 1884.353516,597.220032 1903.219482,596.105835 
	C1918.457886,595.205933 1933.714355,594.601196 1948.948242,593.635315 
	C1975.078247,591.978699 2001.190430,590.040955 2027.322388,588.417053 
	C2044.883545,587.325745 2062.467529,586.602478 2080.038086,585.659180 
	C2101.234375,584.521301 2122.427002,583.320190 2143.621582,582.155212 
	C2158.865723,581.317322 2174.111084,580.510681 2189.354248,579.657471 
	C2197.934814,579.177124 2206.517090,578.114868 2215.089355,578.204041 
	C2250.967529,578.577515 2269.935547,598.999756 2277.305420,631.496582 
	C2280.213379,644.318848 2281.488037,657.781311 2281.493652,670.953125 
	C2281.698486,1149.605225 2281.697510,1628.257446 2281.527588,2106.909668 
	C2281.521729,2123.091797 2280.083008,2139.273682 2276.488037,2155.260498 
	C2268.593262,2190.367920 2246.330322,2210.538574 2211.981445,2217.694824 
	C2198.754395,2220.450684 2185.066650,2221.254639 2171.537354,2222.242432 
	C2150.371338,2223.787598 2129.162598,2224.749756 2107.970215,2225.928223 
	C2093.057617,2226.757324 2078.134766,2227.417969 2063.229736,2228.361572 
	C2036.767700,2230.036377 2010.322266,2231.976318 1983.857178,2233.597412 
	C1965.962769,2234.693848 1948.043335,2235.376465 1930.140625,2236.347168 
	C1908.615845,2237.513916 1887.098877,2238.825684 1865.574707,2240.005615 
	C1850.327759,2240.841553 1835.065430,2241.416260 1819.826172,2242.367432 
	C1793.362549,2244.019287 1766.917603,2245.972168 1740.452881,2247.604980 
	C1722.891113,2248.688721 1705.306519,2249.395508 1687.735962,2250.343262 
	C1666.541016,2251.486572 1645.351807,2252.735840 1624.157104,2253.884033 
	C1608.247070,2254.746338 1592.327026,2255.428223 1576.421387,2256.360107 
	C1557.558105,2257.465088 1538.709839,2258.822021 1519.847168,2259.937500 
	C1504.605225,2260.838623 1489.343628,2261.413086 1474.105225,2262.364014 
	C1447.309326,2264.035889 1420.530029,2265.974609 1393.733154,2267.627197 
	C1376.503662,2268.689941 1359.253296,2269.408203 1342.015625,2270.341064 
	C1320.155151,2271.524170 1298.299072,2272.785400 1276.439209,2273.979736 
	C1261.527344,2274.794189 1246.604248,2275.422607 1231.700684,2276.363770 
	C1205.238037,2278.034912 1178.793335,2279.991455 1152.328003,2281.614014 
	C1134.433838,2282.711182 1116.514648,2283.393066 1098.611084,2284.344727 
	C1077.412354,2285.471680 1056.218994,2286.697754 1035.022339,2287.863525 
	C1019.780396,2288.701660 1004.532837,2289.443848 989.295227,2290.353027 
	C970.101440,2291.498047 950.919739,2292.846680 931.724304,2293.961182 
	C916.148743,2294.864990 900.550354,2295.387939 884.980530,2296.372803 
	C859.182312,2298.005127 833.406433,2299.993408 807.606750,2301.598877 
	C789.713501,2302.712646 771.792542,2303.371094 753.890259,2304.349609 
	C732.366638,2305.525146 710.841553,2306.697998 689.332092,2308.102783 
	C663.112671,2309.815186 637.045715,2310.243896 611.504272,2302.439697 
	C584.859009,2294.298584 567.888367,2276.753418 559.986755,2250.223633 
	C555.979919,2236.770752 554.455505,2222.883789 554.425537,2208.963135 
	C554.243347,2124.309082 554.334595,2039.654419 554.334595,1953.999756 
M940.334473,1866.999878 
	C940.334473,1906.238892 940.334473,1945.478027 940.334473,1984.743530 
	C911.904297,1992.634399 884.481262,2000.376221 856.979065,2007.826172 
	C842.240723,2011.818726 831.495422,2020.734253 824.804993,2034.078125 
	C816.579651,2050.483398 813.126465,2067.676270 819.183228,2085.613037 
	C830.772827,2085.613037 841.742615,2086.117676 852.650696,2085.512451 
	C878.789612,2084.062256 904.894836,2082.015625 931.023071,2080.357666 
	C945.927734,2079.411865 960.852417,2078.786621 975.765198,2077.964111 
	C997.287903,2076.777100 1018.805481,2075.496094 1040.329834,2074.340820 
	C1058.231567,2073.379883 1076.145630,2072.640137 1094.043945,2071.624756 
	C1115.563110,2070.403320 1137.059204,2068.720703 1158.588501,2067.751953 
	C1175.892090,2066.973389 1193.030273,2065.247803 1209.530396,2059.910645 
	C1232.358154,2052.526855 1251.477295,2039.852661 1263.944214,2018.715332 
	C1270.910767,2006.903564 1275.242554,1994.224365 1275.551270,1979.789917 
	C1225.313354,1968.466797 1175.615601,1957.265381 1126.316895,1946.153809 
	C1126.316895,1707.092529 1126.316895,1469.062744 1126.316895,1229.205200 
	C1129.096680,1233.449097 1130.879761,1236.106323 1132.598389,1238.804688 
	C1169.577515,1296.866943 1206.542725,1354.937988 1243.524902,1412.998413 
	C1279.616211,1469.659912 1315.722412,1526.312012 1351.823853,1582.967041 
	C1388.100342,1639.897217 1424.371582,1696.830688 1460.658813,1753.753906 
	C1500.878784,1816.846558 1541.445068,1879.721802 1581.203247,1943.104004 
	C1600.920776,1974.536987 1623.801270,2003.281616 1649.469727,2029.901611 
	C1660.645020,2041.491089 1673.588867,2051.043213 1688.448608,2057.224365 
	C1713.551025,2067.666504 1740.306274,2068.726074 1766.852539,2067.313965 
	C1795.812744,2065.773682 1823.701050,2058.004639 1850.873047,2047.877808 
	C1876.077393,2038.484375 1900.378296,2027.159790 1924.798584,2014.089478 
	C1924.798584,1659.548950 1924.798584,1305.105469 1924.798584,950.695496 
	C1929.626099,949.682617 1933.514160,948.846802 1937.410522,948.052795 
	C1960.151611,943.419006 1982.922607,938.926331 2005.624146,934.107300 
	C2015.664673,931.976013 2024.008179,926.903259 2030.295776,918.472656 
	C2047.431641,895.496765 2045.093384,870.147827 2040.508789,843.185364 
	C2028.439209,844.054810 2017.247192,844.966187 2006.041260,845.646179 
	C1982.865845,847.052429 1959.682617,848.328308 1936.503296,849.671265 
	C1913.656372,850.994873 1890.810425,852.334900 1867.963989,853.668274 
	C1845.117676,855.001648 1822.275391,856.407166 1799.424194,857.650452 
	C1773.249268,859.074463 1747.062988,860.291992 1720.889282,861.738098 
	C1713.619873,862.139771 1706.294312,862.552856 1699.137817,863.789307 
	C1674.570435,868.033691 1653.746216,878.963684 1639.620117,900.114624 
	C1627.519409,918.233154 1623.533936,938.196350 1628.256104,960.377930 
	C1670.258423,965.272156 1711.856689,970.119324 1752.923584,974.904602 
	C1752.923584,1195.991211 1752.923584,1415.976440 1752.923584,1637.915283 
	C1749.762817,1633.253174 1747.693604,1630.295654 1745.719727,1627.275757 
	C1705.675537,1566.013550 1665.655396,1504.735718 1625.603271,1443.478760 
	C1590.282959,1389.458374 1554.945679,1335.448730 1519.586426,1281.453735 
	C1470.380493,1206.314453 1421.127686,1131.205811 1371.932007,1056.059692 
	C1337.862549,1004.018860 1303.831909,951.952454 1269.837158,899.862671 
	C1261.288574,886.763672 1261.389282,886.799561 1245.948730,887.910828 
	C1227.102173,889.267334 1208.244629,890.477844 1189.387329,891.679626 
	C1174.485229,892.629456 1159.568970,893.361694 1144.672241,894.385193 
	C1120.211426,896.065918 1095.767090,897.987122 1071.304810,899.646240 
	C1055.743164,900.701660 1040.149414,901.291809 1024.592407,902.403992 
	C1002.126099,904.010132 979.687683,906.006531 957.223022,907.638367 
	C936.722351,909.127563 916.154297,909.857910 895.706665,911.853027 
	C879.571655,913.427368 864.772644,919.401733 851.973511,929.635071 
	C831.655090,945.880310 821.186951,967.460754 818.335083,992.963806 
	C817.196350,1003.147400 816.610718,1013.389954 820.449707,1023.268555 
	C860.399719,1026.487915 899.964783,1029.676392 940.334473,1032.929565 
	C940.334473,1310.544312 940.334473,1587.772095 940.334473,1866.999878 
z"/>
<path fill="#1F1F1F" opacity="1.000000" stroke="none" 
	d="
M1501.626831,163.668732 
	C1527.683838,161.806946 1552.796265,159.904480 1577.916138,158.103943 
	C1599.414917,156.562958 1620.976074,155.674500 1642.409912,153.509186 
	C1663.005615,151.428528 1683.548950,151.213806 1704.148193,152.350006 
	C1735.609619,154.085312 1765.671143,161.525360 1794.488647,174.339539 
	C1820.864990,186.068298 1843.581543,203.436584 1866.728638,220.190887 
	C1927.867798,264.444611 1989.016602,308.685181 2050.178955,352.906982 
	C2063.651611,362.647888 2077.530762,371.866943 2090.549805,382.175873 
	C2096.093750,386.565796 2100.748291,392.657288 2104.299072,398.841309 
	C2108.813232,406.703735 2106.822754,410.652313 2097.915039,412.187866 
	C2089.472656,413.643127 2080.791504,413.780426 2072.203857,414.311157 
	C2051.353027,415.599762 2030.497070,416.809052 2009.640015,417.994232 
	C1995.059937,418.822723 1980.464844,419.412262 1965.893555,420.368256 
	C1940.763306,422.016968 1915.653564,423.981781 1890.521118,425.594482 
	C1873.295044,426.699890 1856.042969,427.395050 1838.806274,428.343201 
	C1818.274780,429.472626 1797.747925,430.684448 1777.218140,431.845367 
	C1762.310059,432.688446 1747.392212,433.377594 1732.493896,434.365326 
	C1707.364502,436.031311 1682.257080,438.034393 1657.121948,439.599884 
	C1638.565552,440.755676 1619.973633,441.330170 1601.408936,442.366058 
	C1582.211548,443.437317 1563.030640,444.800812 1543.837158,445.946198 
	C1529.260254,446.816040 1514.666016,447.408813 1500.095215,448.365906 
	C1474.965210,450.016632 1449.854614,451.964600 1424.722168,453.576233 
	C1407.495850,454.680847 1390.243042,455.366028 1373.008301,456.349030 
	C1352.484375,457.519684 1331.969482,458.851257 1311.446045,460.031311 
	C1296.865967,460.869629 1282.268555,461.423340 1267.696045,462.368805 
	C1242.232788,464.020813 1216.789795,465.986633 1191.324829,467.608398 
	C1174.098145,468.705444 1156.845337,469.388885 1139.609375,470.346924 
	C1119.081665,471.487915 1098.560669,472.748291 1078.034180,473.912292 
	C1063.123291,474.757874 1048.199341,475.393982 1033.296997,476.366882 
	C1007.834167,478.029236 982.393005,480.031219 956.925110,481.605804 
	C938.367920,482.753113 919.776001,483.327209 901.211365,484.367828 
	C882.343689,485.425476 863.493530,486.791779 844.630005,487.928467 
	C830.056396,488.806610 815.465759,489.411591 800.897400,490.364227 
	C775.434998,492.029236 749.986755,493.908722 724.527161,495.618500 
	C709.960022,496.596741 695.386902,497.502930 680.808228,498.289093 
	C658.615601,499.485870 636.424927,501.227173 614.217102,501.525696 
	C572.046631,502.092590 532.479187,492.856018 498.272827,466.743042 
	C473.716827,447.997131 449.448334,428.870056 425.225250,409.693634 
	C379.898987,373.810638 334.682007,337.789490 289.477997,301.752533 
	C285.863373,298.870941 282.167511,295.822418 279.426208,292.164429 
	C271.118256,281.078430 272.585754,269.511353 284.212097,262.093506 
	C291.329803,257.552307 299.617798,253.796432 307.855743,252.292648 
	C322.139008,249.685349 336.778229,248.949097 351.291565,247.699921 
	C373.070526,245.825348 394.862549,244.089615 416.662628,242.478851 
	C431.554626,241.378525 446.480194,240.733047 461.372070,239.631378 
	C483.172028,238.018661 504.950439,236.116119 526.747375,234.460083 
	C540.310303,233.429611 553.894531,232.682251 567.462097,231.708755 
	C593.907471,229.811249 620.343567,227.782425 646.791687,225.925354 
	C668.294983,224.415497 689.823792,223.255325 711.316895,221.619308 
	C741.043152,219.356583 770.737122,216.669891 800.463440,214.408218 
	C816.015015,213.225006 831.621460,212.766678 847.175842,211.613632 
	C867.982178,210.071228 888.752747,208.050232 909.556396,206.467896 
	C924.444519,205.335480 939.372803,204.734161 954.263428,203.630051 
	C976.063843,202.013596 997.838867,200.055206 1019.639526,198.442123 
	C1034.530762,197.340286 1049.458496,196.733459 1064.349487,195.628479 
	C1086.149658,194.010788 1107.926025,192.070633 1129.723389,190.412491 
	C1143.285522,189.380814 1156.872437,188.679840 1170.440308,187.717880 
	C1196.890137,185.842667 1223.331421,183.849014 1249.781616,181.979233 
	C1270.949341,180.482895 1292.135254,179.235184 1313.294312,177.629684 
	C1343.683472,175.323822 1374.050293,172.726685 1404.437134,170.388153 
	C1418.330200,169.318954 1432.252319,168.632446 1446.153442,167.660385 
	C1464.334839,166.389038 1482.508545,165.006805 1501.626831,163.668732 
z"/>
<path fill="#FEFEFE" opacity="1.000000" stroke="none" 
	d="
M940.334473,1865.999756 
	C940.334473,1587.772095 940.334473,1310.544312 940.334473,1032.929565 
	C899.964783,1029.676392 860.399719,1026.487915 820.449707,1023.268555 
	C816.610718,1013.389954 817.196350,1003.147400 818.335083,992.963806 
	C821.186951,967.460754 831.655090,945.880310 851.973511,929.635071 
	C864.772644,919.401733 879.571655,913.427368 895.706665,911.853027 
	C916.154297,909.857910 936.722351,909.127563 957.223022,907.638367 
	C979.687683,906.006531 1002.126099,904.010132 1024.592407,902.403992 
	C1040.149414,901.291809 1055.743164,900.701660 1071.304810,899.646240 
	C1095.767090,897.987122 1120.211426,896.065918 1144.672241,894.385193 
	C1159.568970,893.361694 1174.485229,892.629456 1189.387329,891.679626 
	C1208.244629,890.477844 1227.102173,889.267334 1245.948730,887.910828 
	C1261.389282,886.799561 1261.288574,886.763672 1269.837158,899.862671 
	C1303.831909,951.952454 1337.862549,1004.018860 1371.932007,1056.059692 
	C1421.127686,1131.205811 1470.380493,1206.314453 1519.586426,1281.453735 
	C1554.945679,1335.448730 1590.282959,1389.458374 1625.603271,1443.478760 
	C1665.655396,1504.735718 1705.675537,1566.013550 1745.719727,1627.275757 
	C1747.693604,1630.295654 1749.762817,1633.253174 1752.923584,1637.915283 
	C1752.923584,1415.976440 1752.923584,1195.991211 1752.923584,974.904602 
	C1711.856689,970.119324 1670.258423,965.272156 1628.256104,960.377930 
	C1623.533936,938.196350 1627.519409,918.233154 1639.620117,900.114624 
	C1653.746216,878.963684 1674.570435,868.033691 1699.137817,863.789307 
	C1706.294312,862.552856 1713.619873,862.139771 1720.889282,861.738098 
	C1747.062988,860.291992 1773.249268,859.074463 1799.424194,857.650452 
	C1822.275391,856.407166 1845.117676,855.001648 1867.963989,853.668274 
	C1890.810425,852.334900 1913.656372,850.994873 1936.503296,849.671265 
	C1959.682617,848.328308 1982.865845,847.052429 2006.041260,845.646179 
	C2017.247192,844.966187 2028.439209,844.054810 2040.508789,843.185364 
	C2045.093384,870.147827 2047.431641,895.496765 2030.295776,918.472656 
	C2024.008179,926.903259 2015.664673,931.976013 2005.624146,934.107300 
	C1982.922607,938.926331 1960.151611,943.419006 1937.410522,948.052795 
	C1933.514160,948.846802 1929.626099,949.682617 1924.798584,950.695496 
	C1924.798584,1305.105469 1924.798584,1659.548950 1924.798584,2014.089478 
	C1900.378296,2027.159790 1876.077393,2038.484375 1850.873047,2047.877808 
	C1823.701050,2058.004639 1795.812744,2065.773682 1766.852539,2067.313965 
	C1740.306274,2068.726074 1713.551025,2067.666504 1688.448608,2057.224365 
	C1673.588867,2051.043213 1660.645020,2041.491089 1649.469727,2029.901611 
	C1623.801270,2003.281616 1600.920776,1974.536987 1581.203247,1943.104004 
	C1541.445068,1879.721802 1500.878784,1816.846558 1460.658813,1753.753906 
	C1424.371582,1696.830688 1388.100342,1639.897217 1351.823853,1582.967041 
	C1315.722412,1526.312012 1279.616211,1469.659912 1243.524902,1412.998413 
	C1206.542725,1354.937988 1169.577515,1296.866943 1132.598389,1238.804688 
	C1130.879761,1236.106323 1129.096680,1233.449097 1126.316895,1229.205200 
	C1126.316895,1469.062744 1126.316895,1707.092529 1126.316895,1946.153809 
	C1175.615601,1957.265381 1225.313354,1968.466797 1275.551270,1979.789917 
	C1275.242554,1994.224365 1270.910767,2006.903564 1263.944214,2018.715332 
	C1251.477295,2039.852661 1232.358154,2052.526855 1209.530396,2059.910645 
	C1193.030273,2065.247803 1175.892090,2066.973389 1158.588501,2067.751953 
	C1137.059204,2068.720703 1115.563110,2070.403320 1094.043945,2071.624756 
	C1076.145630,2072.640137 1058.231567,2073.379883 1040.329834,2074.340820 
	C1018.805481,2075.496094 997.287903,2076.777100 975.765198,2077.964111 
	C960.852417,2078.786621 945.927734,2079.411865 931.023071,2080.357666 
	C904.894836,2082.015625 878.789612,2084.062256 852.650696,2085.512451 
	C841.742615,2086.117676 830.772827,2085.613037 819.183228,2085.613037 
	C813.126465,2067.676270 816.579651,2050.483398 824.804993,2034.078125 
	C831.495422,2020.734253 842.240723,2011.818726 856.979065,2007.826172 
	C884.481262,2000.376221 911.904297,1992.634399 940.334473,1984.743530 
	C940.334473,1945.478027 940.334473,1906.238892 940.334473,1865.999756 
z"/>
</svg>